<svg id="a79ed89f-6262-4cdf-bf12-b239075e719a" data-name="Capa 1" xmlns="http://www.w3.org/2000/svg" xmlns:xlink="http://www.w3.org/1999/xlink" viewBox="0 0 200 200"><defs><style>.aa14a4c3-6c9e-4b89-bee6-dc635f984099{fill:#a3195b;}.f9a354b3-28ff-4907-9852-fc0be16f8989{fill:#fff;}.bccd2cd8-b888-46d6-9518-3ce0751c14c0{fill:url(#a07149f9-257a-48c3-a1d1-ee6cf2ab9979);}.e19c6495-8721-46f1-b2b6-f3fddac5c3d7{fill:url(#a8be4a30-2916-4cab-9c6d-191de845cc6f);}.f63902c0-4ad6-45b9-b2f2-63735a582c2a{fill:url(#e9677a88-d3ea-418f-b9f7-595f87ea0694);}.ad17c67d-e5a4-4ebd-b755-d03a203dcb34{fill:url(#b4a0785d-d511-4f68-acda-a3e89d719855);}</style><linearGradient id="a07149f9-257a-48c3-a1d1-ee6cf2ab9979" x1="106.05" y1="116.37" x2="97.18" y2="103.65" gradientUnits="userSpaceOnUse"><stop offset="0" stop-color="#fff"/><stop offset="0.37" stop-color="#fff"/><stop offset="0.67" stop-color="#848484"/><stop offset="1"/></linearGradient><linearGradient id="a8be4a30-2916-4cab-9c6d-191de845cc6f" x1="106.05" y1="92.55" x2="97.18" y2="79.84" xlink:href="#a07149f9-257a-48c3-a1d1-ee6cf2ab9979"/><linearGradient id="e9677a88-d3ea-418f-b9f7-595f87ea0694" x1="106.05" y1="140.6" x2="97.18" y2="127.88" xlink:href="#a07149f9-257a-48c3-a1d1-ee6cf2ab9979"/><linearGradient id="b4a0785d-d511-4f68-acda-a3e89d719855" x1="103.94" y1="165.48" x2="95.07" y2="152.77" xlink:href="#a07149f9-257a-48c3-a1d1-ee6cf2ab9979"/></defs><rect class="aa14a4c3-6c9e-4b89-bee6-dc635f984099" width="200" height="200" rx="22.06"/><path class="f9a354b3-28ff-4907-9852-fc0be16f8989" d="M113.41,110.63,87.28,121.81a.88.88,0,0,1-1.22-.81v-8.26a.88.88,0,0,1,.53-.81l26.13-11.18a.88.88,0,0,1,1.22.81v8.27A.86.86,0,0,1,113.41,110.63Z" transform="translate(0)"/><path class="f9a354b3-28ff-4907-9852-fc0be16f8989" d="M113.41,134.58,87.28,145.75a.88.88,0,0,1-1.22-.81v-8.26a.89.89,0,0,1,.53-.81l26.13-11.17a.87.87,0,0,1,1.22.81v8.26A.89.89,0,0,1,113.41,134.58Z" transform="translate(0)"/><path class="f9a354b3-28ff-4907-9852-fc0be16f8989" d="M113.41,158.52,87.28,169.7a.88.88,0,0,1-1.22-.81v-8.27a.86.86,0,0,1,.53-.8l26.13-11.18a.88.88,0,0,1,1.22.81v8.26A.88.88,0,0,1,113.41,158.52Z" transform="translate(0)"/><path class="f9a354b3-28ff-4907-9852-fc0be16f8989" d="M113.41,86.69,87.28,97.86a.87.87,0,0,1-1.22-.8V88.79a.89.89,0,0,1,.53-.81l26.13-11.17a.88.88,0,0,1,1.22.81v8.26A.89.89,0,0,1,113.41,86.69Z" transform="translate(0)"/><path class="bccd2cd8-b888-46d6-9518-3ce0751c14c0" d="M94.27,119.8a7.43,7.43,0,0,1-4.9-4.55l-.4-1a.89.89,0,0,1,.48-1.13L113,103.15" transform="translate(0)"/><path class="e19c6495-8721-46f1-b2b6-f3fddac5c3d7" d="M94.27,96a7.4,7.4,0,0,1-4.9-4.55l-.4-1a.87.87,0,0,1,.48-1.12l23.55-10" transform="translate(0)"/><path class="f63902c0-4ad6-45b9-b2f2-63735a582c2a" d="M94.27,144a7.43,7.43,0,0,1-4.9-4.55l-.4-1a.89.89,0,0,1,.48-1.13L113,127.38" transform="translate(0)"/><path class="ad17c67d-e5a4-4ebd-b755-d03a203dcb34" d="M92.17,168.91a7.43,7.43,0,0,1-4.91-4.54l-.4-1a.88.88,0,0,1,.48-1.12l23.55-10" transform="translate(0)"/><path class="f9a354b3-28ff-4907-9852-fc0be16f8989" d="M86.59,98.76l26.13,11.17a.87.87,0,0,0,1.22-.8v-8.27a.89.89,0,0,0-.53-.81L87.28,88.88a.88.88,0,0,0-1.22.81V98A.89.89,0,0,0,86.59,98.76Z" transform="translate(0)"/><path class="f9a354b3-28ff-4907-9852-fc0be16f8989" d="M86.59,122.65l26.13,11.17a.87.87,0,0,0,1.22-.8v-8.27a.89.89,0,0,0-.53-.81L87.28,112.77a.88.88,0,0,0-1.22.81v8.26A.89.89,0,0,0,86.59,122.65Z" transform="translate(0)"/><path class="f9a354b3-28ff-4907-9852-fc0be16f8989" d="M86.59,146.55l26.13,11.18a.88.88,0,0,0,1.22-.81v-8.26a.88.88,0,0,0-.53-.81L87.28,136.67a.88.88,0,0,0-1.22.81v8.27A.86.86,0,0,0,86.59,146.55Z" transform="translate(0)"/><path class="f9a354b3-28ff-4907-9852-fc0be16f8989" d="M86.59,170.5l21.32,9.11a.88.88,0,0,0,.89-1.49l-21.32-16.9a.88.88,0,0,0-1.42.69v7.78A.89.89,0,0,0,86.59,170.5Z" transform="translate(0)"/><path class="f9a354b3-28ff-4907-9852-fc0be16f8989" d="M42.8,42.12V17.8H157.2V42.12H113.94v43.6L86.06,71.07V42.12Z" transform="translate(0)"/></svg>